<mxfile host="65bd71144e">
    <diagram id="rUvszhAfkLXaTgW_xwvX" name="PÃ¡gina-1">
        <mxGraphModel dx="1130" dy="689" grid="1" gridSize="10" guides="1" tooltips="1" connect="1" arrows="1" fold="1" page="1" pageScale="1" pageWidth="827" pageHeight="1169" math="0" shadow="0">
            <root>
                <mxCell id="0"/>
                <mxCell id="1" parent="0"/>
                <mxCell id="2" value="Actor" style="shape=umlActor;verticalLabelPosition=bottom;verticalAlign=top;html=1;" vertex="1" parent="1">
                    <mxGeometry x="30" y="80" width="30" height="60" as="geometry"/>
                </mxCell>
                <mxCell id="3" value="" style="html=1;points=[];perimeter=orthogonalPerimeter;" vertex="1" parent="1">
                    <mxGeometry x="40" y="170" width="10" height="80" as="geometry"/>
                </mxCell>
                <mxCell id="4" value="Autentication" style="shape=umlBoundary;whiteSpace=wrap;html=1;" vertex="1" parent="1">
                    <mxGeometry x="140" y="70" width="100" height="80" as="geometry"/>
                </mxCell>
                <mxCell id="5" value="" style="html=1;points=[];perimeter=orthogonalPerimeter;" vertex="1" parent="1">
                    <mxGeometry x="190" y="170" width="10" height="80" as="geometry"/>
                </mxCell>
                <mxCell id="6" value="dispatch" style="html=1;verticalAlign=bottom;endArrow=block;exitX=1.2;exitY=0.463;exitDx=0;exitDy=0;exitPerimeter=0;entryX=-0.4;entryY=0.45;entryDx=0;entryDy=0;entryPerimeter=0;" edge="1" parent="1" source="3" target="5">
                    <mxGeometry width="80" relative="1" as="geometry">
                        <mxPoint x="70" y="209.5" as="sourcePoint"/>
                        <mxPoint x="150" y="209.5" as="targetPoint"/>
                    </mxGeometry>
                </mxCell>
                <mxCell id="7" value="Credenciales" style="text;html=1;align=center;verticalAlign=middle;resizable=0;points=[];autosize=1;strokeColor=none;fillColor=none;" vertex="1" parent="1">
                    <mxGeometry x="75" y="175" width="90" height="30" as="geometry"/>
                </mxCell>
                <mxCell id="8" value="Autentication&lt;br&gt;Contoller" style="ellipse;shape=umlControl;whiteSpace=wrap;html=1;" vertex="1" parent="1">
                    <mxGeometry x="379" y="70" width="70" height="80" as="geometry"/>
                </mxCell>
                <mxCell id="9" value="dispatch" style="html=1;verticalAlign=bottom;endArrow=block;exitX=1;exitY=0.625;exitDx=0;exitDy=0;exitPerimeter=0;entryX=-0.3;entryY=0.175;entryDx=0;entryDy=0;entryPerimeter=0;" edge="1" parent="1" source="5" target="10">
                    <mxGeometry width="80" relative="1" as="geometry">
                        <mxPoint x="230" y="220" as="sourcePoint"/>
                        <mxPoint x="310" y="220" as="targetPoint"/>
                    </mxGeometry>
                </mxCell>
                <mxCell id="10" value="" style="html=1;points=[];perimeter=orthogonalPerimeter;" vertex="1" parent="1">
                    <mxGeometry x="409" y="205" width="10" height="125" as="geometry"/>
                </mxCell>
                <mxCell id="12" value="Verificar Credenciales" style="text;html=1;align=center;verticalAlign=middle;resizable=0;points=[];autosize=1;strokeColor=none;fillColor=none;" vertex="1" parent="1">
                    <mxGeometry x="210" y="185" width="140" height="30" as="geometry"/>
                </mxCell>
                <mxCell id="13" value="User" style="ellipse;shape=umlEntity;whiteSpace=wrap;html=1;" vertex="1" parent="1">
                    <mxGeometry x="950" y="70" width="80" height="80" as="geometry"/>
                </mxCell>
                <mxCell id="14" value="" style="html=1;points=[];perimeter=orthogonalPerimeter;" vertex="1" parent="1">
                    <mxGeometry x="985" y="215" width="10" height="80" as="geometry"/>
                </mxCell>
                <mxCell id="15" value="dispatch" style="html=1;verticalAlign=bottom;endArrow=block;exitX=1.2;exitY=0.65;exitDx=0;exitDy=0;exitPerimeter=0;entryX=0.5;entryY=0.563;entryDx=0;entryDy=0;entryPerimeter=0;startArrow=none;" edge="1" parent="1" source="16" target="14">
                    <mxGeometry width="80" relative="1" as="geometry">
                        <mxPoint x="370" y="260" as="sourcePoint"/>
                        <mxPoint x="480" y="257" as="targetPoint"/>
                    </mxGeometry>
                </mxCell>
                <mxCell id="18" value="return" style="html=1;verticalAlign=bottom;endArrow=open;dashed=1;endSize=8;entryX=0.9;entryY=0.064;entryDx=0;entryDy=0;entryPerimeter=0;exitX=0;exitY=0.624;exitDx=0;exitDy=0;exitPerimeter=0;" edge="1" parent="1" source="10" target="23">
                    <mxGeometry relative="1" as="geometry">
                        <mxPoint x="400" y="285" as="sourcePoint"/>
                        <mxPoint x="210" y="283" as="targetPoint"/>
                    </mxGeometry>
                </mxCell>
                <mxCell id="21" value="Credenciales Erroneas" style="edgeLabel;html=1;align=center;verticalAlign=middle;resizable=0;points=[];" vertex="1" connectable="0" parent="18">
                    <mxGeometry x="0.154" y="-1" relative="1" as="geometry">
                        <mxPoint as="offset"/>
                    </mxGeometry>
                </mxCell>
                <mxCell id="19" value="" style="html=1;points=[];perimeter=orthogonalPerimeter;" vertex="1" parent="1">
                    <mxGeometry x="40" y="280" width="10" height="40" as="geometry"/>
                </mxCell>
                <mxCell id="23" value="" style="html=1;points=[];perimeter=orthogonalPerimeter;" vertex="1" parent="1">
                    <mxGeometry x="190" y="280" width="10" height="140" as="geometry"/>
                </mxCell>
                <mxCell id="24" value="return" style="html=1;verticalAlign=bottom;endArrow=open;dashed=1;endSize=8;exitX=-0.5;exitY=0.164;exitDx=0;exitDy=0;exitPerimeter=0;entryX=1.3;entryY=0.55;entryDx=0;entryDy=0;entryPerimeter=0;" edge="1" parent="1" source="23" target="19">
                    <mxGeometry relative="1" as="geometry">
                        <mxPoint x="180" y="300" as="sourcePoint"/>
                        <mxPoint x="50" y="303" as="targetPoint"/>
                    </mxGeometry>
                </mxCell>
                <mxCell id="25" value="Credenciales Erroneas" style="edgeLabel;html=1;align=center;verticalAlign=middle;resizable=0;points=[];" vertex="1" connectable="0" parent="24">
                    <mxGeometry x="0.2059" relative="1" as="geometry">
                        <mxPoint x="13" y="-2" as="offset"/>
                    </mxGeometry>
                </mxCell>
                <mxCell id="26" value="Provider&lt;br&gt;Controller" style="ellipse;shape=umlControl;whiteSpace=wrap;html=1;" vertex="1" parent="1">
                    <mxGeometry x="460" y="70" width="70" height="80" as="geometry"/>
                </mxCell>
                <mxCell id="27" value="" style="html=1;verticalAlign=bottom;endArrow=none;entryX=0.5;entryY=0.563;entryDx=0;entryDy=0;entryPerimeter=0;exitX=1;exitY=0.416;exitDx=0;exitDy=0;exitPerimeter=0;" edge="1" parent="1" source="10" target="16">
                    <mxGeometry width="80" relative="1" as="geometry">
                        <mxPoint x="430" y="260" as="sourcePoint"/>
                        <mxPoint x="770" y="260.03999999999996" as="targetPoint"/>
                    </mxGeometry>
                </mxCell>
                <mxCell id="16" value="Buscar Usuario" style="text;html=1;align=center;verticalAlign=middle;resizable=0;points=[];autosize=1;strokeColor=none;fillColor=none;" vertex="1" parent="1">
                    <mxGeometry x="520" y="240" width="110" height="30" as="geometry"/>
                </mxCell>
                <mxCell id="28" value="inerfaz de Proveedor" style="shape=umlBoundary;whiteSpace=wrap;html=1;" vertex="1" parent="1">
                    <mxGeometry x="260" y="70" width="100" height="80" as="geometry"/>
                </mxCell>
                <mxCell id="29" value="" style="html=1;points=[];perimeter=orthogonalPerimeter;" vertex="1" parent="1">
                    <mxGeometry x="299" y="350" width="10" height="80" as="geometry"/>
                </mxCell>
                <mxCell id="31" value="return" style="html=1;verticalAlign=bottom;endArrow=open;dashed=1;endSize=8;entryX=1.2;entryY=0.293;entryDx=0;entryDy=0;entryPerimeter=0;exitX=-0.4;exitY=0.928;exitDx=0;exitDy=0;exitPerimeter=0;" edge="1" parent="1" source="10" target="23">
                    <mxGeometry relative="1" as="geometry">
                        <mxPoint x="350" y="320" as="sourcePoint"/>
                        <mxPoint x="270" y="320" as="targetPoint"/>
                    </mxGeometry>
                </mxCell>
                <mxCell id="32" value="Credenciales Correctas" style="text;html=1;align=center;verticalAlign=middle;resizable=0;points=[];autosize=1;strokeColor=none;fillColor=none;" vertex="1" parent="1">
                    <mxGeometry x="229" y="310" width="150" height="30" as="geometry"/>
                </mxCell>
                <mxCell id="34" value="dispatch" style="html=1;verticalAlign=bottom;endArrow=block;entryX=0.1;entryY=0.125;entryDx=0;entryDy=0;entryPerimeter=0;" edge="1" parent="1" target="29">
                    <mxGeometry width="80" relative="1" as="geometry">
                        <mxPoint x="200" y="360" as="sourcePoint"/>
                        <mxPoint x="280" y="360" as="targetPoint"/>
                    </mxGeometry>
                </mxCell>
                <mxCell id="35" value="Pantalla de&lt;br&gt;&amp;nbsp;Proveedor" style="edgeLabel;html=1;align=center;verticalAlign=middle;resizable=0;points=[];" vertex="1" connectable="0" parent="34">
                    <mxGeometry x="0.32" y="1" relative="1" as="geometry">
                        <mxPoint x="-16" as="offset"/>
                    </mxGeometry>
                </mxCell>
                <mxCell id="36" value="" style="html=1;points=[];perimeter=orthogonalPerimeter;" vertex="1" parent="1">
                    <mxGeometry x="490" y="350" width="10" height="80" as="geometry"/>
                </mxCell>
                <mxCell id="37" value="Provider Id" style="html=1;verticalAlign=bottom;endArrow=block;exitX=1.1;exitY=0.25;exitDx=0;exitDy=0;exitPerimeter=0;entryX=-0.4;entryY=0.313;entryDx=0;entryDy=0;entryPerimeter=0;" edge="1" parent="1" source="29" target="36">
                    <mxGeometry width="80" relative="1" as="geometry">
                        <mxPoint x="370" y="410" as="sourcePoint"/>
                        <mxPoint x="450" y="410" as="targetPoint"/>
                    </mxGeometry>
                </mxCell>
                <mxCell id="38" value="ProviderProduct&lt;br&gt;Repository" style="ellipse;shape=umlControl;whiteSpace=wrap;html=1;" vertex="1" parent="1">
                    <mxGeometry x="550" y="70" width="70" height="80" as="geometry"/>
                </mxCell>
                <mxCell id="39" value="" style="html=1;points=[];perimeter=orthogonalPerimeter;" vertex="1" parent="1">
                    <mxGeometry x="580" y="350" width="10" height="150" as="geometry"/>
                </mxCell>
                <mxCell id="41" value="Get_Id_Proveedor" style="html=1;verticalAlign=bottom;endArrow=block;exitX=1;exitY=0.538;exitDx=0;exitDy=0;exitPerimeter=0;entryX=-0.3;entryY=0.28;entryDx=0;entryDy=0;entryPerimeter=0;" edge="1" parent="1" source="36" target="39">
                    <mxGeometry width="80" relative="1" as="geometry">
                        <mxPoint x="370" y="410" as="sourcePoint"/>
                        <mxPoint x="450" y="410" as="targetPoint"/>
                    </mxGeometry>
                </mxCell>
                <mxCell id="43" value="Provider_product" style="ellipse;shape=umlEntity;whiteSpace=wrap;html=1;" vertex="1" parent="1">
                    <mxGeometry x="1050" y="70" width="110" height="80" as="geometry"/>
                </mxCell>
                <mxCell id="44" value="" style="html=1;points=[];perimeter=orthogonalPerimeter;" vertex="1" parent="1">
                    <mxGeometry x="1100" y="390" width="10" height="110" as="geometry"/>
                </mxCell>
                <mxCell id="45" value="fFindAllBy(id_proveedor)" style="html=1;verticalAlign=bottom;endArrow=block;entryX=-0.4;entryY=0.209;entryDx=0;entryDy=0;entryPerimeter=0;exitX=1.2;exitY=0.393;exitDx=0;exitDy=0;exitPerimeter=0;" edge="1" parent="1" source="39" target="44">
                    <mxGeometry width="80" relative="1" as="geometry">
                        <mxPoint x="610" y="410" as="sourcePoint"/>
                        <mxPoint x="670" y="410" as="targetPoint"/>
                    </mxGeometry>
                </mxCell>
                <mxCell id="46" value="List_id_products" style="html=1;verticalAlign=bottom;endArrow=open;dashed=1;endSize=8;exitX=-0.3;exitY=0.418;exitDx=0;exitDy=0;exitPerimeter=0;entryX=1.4;entryY=0.6;entryDx=0;entryDy=0;entryPerimeter=0;" edge="1" parent="1" source="44" target="39">
                    <mxGeometry relative="1" as="geometry">
                        <mxPoint x="870" y="470" as="sourcePoint"/>
                        <mxPoint x="610" y="446" as="targetPoint"/>
                    </mxGeometry>
                </mxCell>
                <mxCell id="49" value="Order&lt;br&gt;Repository" style="ellipse;shape=umlControl;whiteSpace=wrap;html=1;" vertex="1" parent="1">
                    <mxGeometry x="640" y="70" width="70" height="80" as="geometry"/>
                </mxCell>
                <mxCell id="50" value="" style="html=1;points=[];perimeter=orthogonalPerimeter;" vertex="1" parent="1">
                    <mxGeometry x="670" y="480" width="10" height="80" as="geometry"/>
                </mxCell>
                <mxCell id="51" value="findAllBy(id_products)" style="html=1;verticalAlign=bottom;endArrow=block;exitX=1.4;exitY=0.907;exitDx=0;exitDy=0;exitPerimeter=0;entryX=-0.2;entryY=0.075;entryDx=0;entryDy=0;entryPerimeter=0;" edge="1" parent="1" source="39" target="50">
                    <mxGeometry width="80" relative="1" as="geometry">
                        <mxPoint x="590" y="585" as="sourcePoint"/>
                        <mxPoint x="660" y="486" as="targetPoint"/>
                    </mxGeometry>
                </mxCell>
                <mxCell id="53" value="Orders" style="ellipse;shape=umlEntity;whiteSpace=wrap;html=1;" vertex="1" parent="1">
                    <mxGeometry x="850" y="70" width="80" height="80" as="geometry"/>
                </mxCell>
                <mxCell id="54" value="" style="html=1;points=[];perimeter=orthogonalPerimeter;" vertex="1" parent="1">
                    <mxGeometry x="885" y="480" width="10" height="80" as="geometry"/>
                </mxCell>
                <mxCell id="55" value="FindAllBy" style="html=1;verticalAlign=bottom;endArrow=block;entryX=0.1;entryY=0.4;entryDx=0;entryDy=0;entryPerimeter=0;exitX=0.9;exitY=0.338;exitDx=0;exitDy=0;exitPerimeter=0;" edge="1" parent="1" source="50" target="54">
                    <mxGeometry width="80" relative="1" as="geometry">
                        <mxPoint x="700" y="510" as="sourcePoint"/>
                        <mxPoint x="760" y="510" as="targetPoint"/>
                    </mxGeometry>
                </mxCell>
                <mxCell id="56" value="List_Orders" style="html=1;verticalAlign=bottom;endArrow=open;dashed=1;endSize=8;entryX=1.3;entryY=0.738;entryDx=0;entryDy=0;entryPerimeter=0;exitX=0.2;exitY=0.775;exitDx=0;exitDy=0;exitPerimeter=0;" edge="1" parent="1" source="54" target="50">
                    <mxGeometry relative="1" as="geometry">
                        <mxPoint x="860" y="540" as="sourcePoint"/>
                        <mxPoint x="815" y="540" as="targetPoint"/>
                    </mxGeometry>
                </mxCell>
                <mxCell id="58" value="" style="html=1;points=[];perimeter=orthogonalPerimeter;" vertex="1" parent="1">
                    <mxGeometry x="580" y="545" width="10" height="145" as="geometry"/>
                </mxCell>
                <mxCell id="59" value="ListORders" style="html=1;verticalAlign=bottom;endArrow=open;dashed=1;endSize=8;entryX=1;entryY=0.083;entryDx=0;entryDy=0;entryPerimeter=0;exitX=-0.4;exitY=0.975;exitDx=0;exitDy=0;exitPerimeter=0;" edge="1" parent="1" source="50" target="58">
                    <mxGeometry relative="1" as="geometry">
                        <mxPoint x="700" y="585" as="sourcePoint"/>
                        <mxPoint x="620" y="585" as="targetPoint"/>
                    </mxGeometry>
                </mxCell>
                <mxCell id="62" value="Process And Return Data" style="html=1;verticalAlign=bottom;endArrow=block;entryX=1.1;entryY=0.8;entryDx=0;entryDy=0;entryPerimeter=0;exitX=1.3;exitY=0.572;exitDx=0;exitDy=0;exitPerimeter=0;" edge="1" parent="1" source="58" target="58">
                    <mxGeometry width="80" relative="1" as="geometry">
                        <mxPoint x="590" y="584" as="sourcePoint"/>
                        <mxPoint x="640" y="640" as="targetPoint"/>
                        <Array as="points">
                            <mxPoint x="620" y="630"/>
                            <mxPoint x="630" y="640"/>
                            <mxPoint x="620" y="660"/>
                        </Array>
                    </mxGeometry>
                </mxCell>
                <mxCell id="66" value="Ventas&lt;br&gt;Repository" style="ellipse;shape=umlControl;whiteSpace=wrap;html=1;" vertex="1" parent="1">
                    <mxGeometry x="730" y="70" width="70" height="80" as="geometry"/>
                </mxCell>
                <mxCell id="69" value="" style="html=1;points=[];perimeter=orthogonalPerimeter;" vertex="1" parent="1">
                    <mxGeometry x="750" y="577.5" width="10" height="42.5" as="geometry"/>
                </mxCell>
                <mxCell id="70" value="Get_Pay_orders" style="html=1;verticalAlign=bottom;startArrow=oval;endArrow=block;startSize=8;exitX=1;exitY=0.255;exitDx=0;exitDy=0;exitPerimeter=0;" edge="1" target="69" parent="1" source="58">
                    <mxGeometry relative="1" as="geometry">
                        <mxPoint x="690" y="585" as="sourcePoint"/>
                    </mxGeometry>
                </mxCell>
                <mxCell id="71" value="PAyyed_orders" style="html=1;verticalAlign=bottom;endArrow=open;dashed=1;endSize=8;exitX=0.1;exitY=0.882;exitDx=0;exitDy=0;exitPerimeter=0;entryX=1;entryY=0.49;entryDx=0;entryDy=0;entryPerimeter=0;" edge="1" parent="1" source="69" target="58">
                    <mxGeometry relative="1" as="geometry">
                        <mxPoint x="730" y="617" as="sourcePoint"/>
                        <mxPoint x="650" y="617" as="targetPoint"/>
                    </mxGeometry>
                </mxCell>
                <mxCell id="72" value="" style="html=1;points=[];perimeter=orthogonalPerimeter;" vertex="1" parent="1">
                    <mxGeometry x="305" y="690" width="10" height="80" as="geometry"/>
                </mxCell>
                <mxCell id="73" value="Mostrar al Usuario la Data ordenada" style="html=1;verticalAlign=bottom;endArrow=open;dashed=1;endSize=8;exitX=0.1;exitY=0.972;exitDx=0;exitDy=0;exitPerimeter=0;entryX=0.7;entryY=-0.012;entryDx=0;entryDy=0;entryPerimeter=0;" edge="1" parent="1" source="58" target="72">
                    <mxGeometry relative="1" as="geometry">
                        <mxPoint x="510" y="680" as="sourcePoint"/>
                        <mxPoint x="320" y="690" as="targetPoint"/>
                    </mxGeometry>
                </mxCell>
                <mxCell id="74" value="" style="html=1;points=[];perimeter=orthogonalPerimeter;" vertex="1" parent="1">
                    <mxGeometry x="40" y="720" width="10" height="80" as="geometry"/>
                </mxCell>
                <mxCell id="75" value="Consumir Data" style="html=1;verticalAlign=bottom;endArrow=open;dashed=1;endSize=8;exitX=0.2;exitY=0.5;exitDx=0;exitDy=0;exitPerimeter=0;entryX=1;entryY=0.188;entryDx=0;entryDy=0;entryPerimeter=0;" edge="1" parent="1" source="72" target="74">
                    <mxGeometry relative="1" as="geometry">
                        <mxPoint x="240" y="729.5" as="sourcePoint"/>
                        <mxPoint x="70" y="730" as="targetPoint"/>
                    </mxGeometry>
                </mxCell>
            </root>
        </mxGraphModel>
    </diagram>
</mxfile>